<?xml version="1.0" encoding="UTF-8" standalone="no"?>
<!-- Created with Vectornator (http://vectornator.io/) -->

<svg
   height="100%"
   stroke-miterlimit="10"
   style="fill-rule:nonzero;clip-rule:evenodd;stroke-linecap:round;stroke-linejoin:round;"
   version="1.1"
   viewBox="0 0 900 900"
   width="100%"
   xml:space="preserve"
   id="svg193"
   sodipodi:docname="lupienice.svg"
   inkscape:version="1.1.1 (3bf5ae0d25, 2021-09-20)"
   xmlns:inkscape="http://www.inkscape.org/namespaces/inkscape"
   xmlns:sodipodi="http://sodipodi.sourceforge.net/DTD/sodipodi-0.dtd"
   xmlns="http://www.w3.org/2000/svg"
   xmlns:svg="http://www.w3.org/2000/svg"><sodipodi:namedview
   id="namedview195"
   pagecolor="#ffffff"
   bordercolor="#666666"
   borderopacity="1.0"
   inkscape:pageshadow="2"
   inkscape:pageopacity="0.0"
   inkscape:pagecheckerboard="0"
   showgrid="false"
   inkscape:zoom="0.89111111"
   inkscape:cx="449.4389"
   inkscape:cy="450.5611"
   inkscape:window-width="1920"
   inkscape:window-height="991"
   inkscape:window-x="-9"
   inkscape:window-y="-9"
   inkscape:window-maximized="1"
   inkscape:current-layer="svg193" />
<defs
   id="defs2" />

<path
   style="fill:none;stroke:#000000;stroke-width:22.2311;stroke-linecap:round;stroke-linejoin:miter;stroke-miterlimit:4;stroke-dasharray:none;stroke-opacity:1"
   d="M 294.99979,409.4732 482.39296,79.996919 614.38292,367.27427"
   id="path970" /><path
   style="fill:#b3b3b3;fill-opacity:1;stroke:#000000;stroke-width:21.2956;stroke-linecap:butt;stroke-linejoin:miter;stroke-miterlimit:4;stroke-dasharray:none;stroke-opacity:1"
   d="m 46.586985,846.72216 145.753965,-243.89851 48.88516,77.44388 86.36381,-98.29415 48.88516,64.04011 43.99666,-31.27539 37.47861,49.14707 47.25568,-90.8476 40.73765,52.12564 50.51462,-47.65776 66.80977,113.18719 72.50142,-91.68875 115.79321,247.71827"
   id="path1005"
   sodipodi:nodetypes="ccccccccccccc" /><path
   d="m 103.92092,503.58859 100.79471,-70.04476 h -86.60581 q -9.10232,0 -13.78733,-2.33224 -4.551163,-2.33221 -4.551163,-6.14154 0,-3.96481 4.551163,-6.37475 4.68501,-2.48774 13.78733,-2.48774 h 111.63717 q 21.68492,0 21.68492,11.73894 0,5.59733 -3.61415,8.94024 -3.61416,3.34283 -14.59047,10.80598 l -94.23571,65.14707 h 103.87344 q 9.23617,0 13.78733,2.25446 4.55115,2.1768 4.55115,6.14158 0,4.12025 -4.55115,6.53019 -4.55116,2.41004 -13.78733,2.41004 H 115.43267 q -12.98419,0 -19.543202,-3.34291 -6.559021,-3.42056 -6.559021,-9.09567 0,-1.94354 1.070871,-3.57614 1.070849,-1.63252 2.810999,-3.03185 1.874,-1.47712 5.086591,-3.65384 3.212572,-2.25451 5.622012,-3.88706 z"
   id="path9696"
   style="font-size:46.5302px;line-height:1.25;font-family:'Arial Rounded MT Bold';-inkscape-font-specification:'Arial Rounded MT Bold, Normal';fill:#000000;stroke-width:5.22298" /><path
   d="m 470.10771,488.10711 v 18.71775 c 0,2.90233 -0.23165,5.23453 -0.6949,6.99671 -0.46318,1.7103 -1.32644,3.26512 -2.58982,4.66446 -1.22123,1.39937 -2.80038,2.74687 -4.73748,4.04254 -5.60084,3.73158 -10.99109,6.45255 -16.17075,8.1628 -5.17969,1.7103 -10.82258,2.56548 -16.92867,2.56548 -7.11677,0 -13.60186,-1.34754 -19.4553,-4.04255 -5.85343,-2.69506 -10.84359,-6.60799 -14.97048,-11.7389 -4.12687,-5.1309 -7.30626,-11.35019 -9.53814,-18.6579 -2.18978,-7.30768 -3.28467,-15.47043 -3.28467,-24.4884 0,-8.8625 1.07383,-16.97347 3.2215,-24.33297 2.14766,-7.35951 5.306,-13.60468 9.47499,-18.73564 4.16899,-5.13087 9.24337,-9.04386 15.22313,-11.7389 5.97977,-2.74684 12.75964,-4.12026 20.33965,-4.12026 6.23243,0 11.66731,1.38944 16.46802,3.46255 2.14882,2.21354 0.69084,16.05439 -6.38346,17.23477 0,0 -5.67502,-3.75962 -11.47424,-2.89464 -2.69511,-1.55482 1.18992,0.0506 0,0 -4.33488,-0.1837 -8.21166,0.93293 -11.62264,2.79867 -3.41099,1.814 -6.3377,4.48309 -8.78016,8.00736 -2.40033,3.47244 -4.25322,7.74822 -5.55866,12.8273 -1.26332,5.07908 -1.895,10.70237 -1.895,16.86981 0,13.37146 2.48456,23.65924 7.45366,30.86324 5.01122,7.20398 11.98059,10.806 20.90814,10.806 4.33742,0 8.40112,-0.69969 12.19115,-2.09902 3.83213,-1.39937 7.70635,-3.39474 11.62273,-5.98608 v -18.50238 l -10.03748,-0.30262 c -3.49416,-0.10519 -6.14818,0.4613 -7.959,-0.83438 -1.76867,-1.29571 -3.55114,-3.49839 -3.55114,-6.60803 0,-2.53956 1.22684,-6.25179 2.70071,-7.91026 1.51602,-1.65847 5.84466,-1.68111 8.41346,-1.68111 h 14.91824 c 2.61094,0 24.57657,0.32658 26.38739,0.89648 1.67145,2.24582 2.6648,4.05973 2.65331,6.91589 -0.0133,3.19368 -1.94683,7.33457 -3.44712,7.66502 -8.48697,1.86957 -9.19159,1.57804 -12.89697,1.17707 z"
   id="path9698"
   style="font-size:46.5302px;line-height:1.25;font-family:'Arial Rounded MT Bold';-inkscape-font-specification:'Arial Rounded MT Bold, Normal';fill:#000000;stroke-width:3.58791"
   sodipodi:nodetypes="cscccsssscssscscccscccscscccscscsscsscc" /><path
   d="m 536.14175,482.56965 h -7.08566 v 36.616 q 0,7.22998 -2.79343,10.65059 -2.79339,3.42061 -7.29007,3.42061 -4.83732,0 -7.49447,-3.57613 -2.65709,-3.57606 -2.65709,-10.49507 v -87.69194 q 0,-7.46311 2.92965,-10.80597 2.92961,-3.34287 9.47025,-3.34287 h 32.90753 q 6.81316,0 11.65053,0.6996 4.83733,0.62195 8.72081,2.64327 4.7011,2.25445 8.31208,6.45245 3.61097,4.19805 5.45051,9.7954 1.90766,5.51964 1.90766,11.7389 0,12.74952 -6.33618,20.36816 -6.26812,7.61865 -19.07683,10.80606 5.38235,3.26513 10.28789,9.63989 4.9054,6.37475 8.72081,13.60469 3.8835,7.15219 5.99556,12.98274 2.18023,5.75284 2.18023,7.92961 0,2.25451 -1.29456,4.50897 -1.22635,2.17676 -3.40649,3.42065 -2.18027,1.32159 -5.04177,1.32159 -3.40661,0 -5.72303,-1.86576 -2.31655,-1.78807 -4.01978,-4.58674 -1.63514,-2.79871 -4.49664,-8.24059 l -8.10775,-15.39274 q -4.36041,-8.47377 -7.83511,-12.90504 -3.40653,-4.43122 -6.94938,-6.06378 -3.54286,-1.63255 -8.92527,-1.63255 z m 11.5824,-47.88852 h -18.66806 v 31.32963 h 18.12299 q 7.29007,0 12.26367,-1.39934 4.97365,-1.47707 7.56264,-4.89763 2.65709,-3.4984 2.65709,-9.56218 0,-4.74223 -2.11206,-8.31828 -2.11211,-3.65384 -5.85932,-5.44194 -3.54286,-1.71026 -13.96695,-1.71026 z"
   id="path9700"
   style="font-size:46.5302px;line-height:1.25;font-family:'Arial Rounded MT Bold';-inkscape-font-specification:'Arial Rounded MT Bold, Normal';fill:#000000;stroke-width:3.72622" /><path
   d="m 754.95002,514.13254 -19.13073,-72.61018 v 78.67401 q 0,6.53024 -3.09351,9.79531 -3.01205,3.26517 -8.05933,3.26517 -4.88443,0 -7.97789,-3.18743 -3.09355,-3.26507 -3.09355,-9.87305 v -90.17969 q 0,-7.4632 4.07037,-10.02863 4.07039,-2.64318 10.99001,-2.64318 h 7.48947 q 6.75686,0 9.76893,1.16611 3.09352,1.16613 4.55883,4.19798 1.46534,3.03194 3.33771,9.87315 l 17.33983,62.42611 17.33979,-62.42611 q 1.87238,-6.84121 3.33766,-9.87315 1.46541,-3.03185 4.47744,-4.19798 3.09352,-1.16611 9.85032,-1.16611 h 7.48948 q 6.91967,0 10.99001,2.64318 4.07042,2.56543 4.07042,10.02863 v 90.17969 q 0,6.53024 -3.09352,9.79531 -3.01206,3.26517 -8.14071,3.26517 -4.80306,0 -7.89655,-3.26517 -3.09346,-3.26507 -3.09346,-9.79531 v -78.67401 l -19.13077,72.61018 q -1.87238,7.0744 -3.09348,10.4173 -1.13974,3.26513 -4.31461,5.98605 -3.17491,2.72096 -8.79202,2.72096 -4.23321,0 -7.16394,-1.78805 -2.9306,-1.71034 -4.55874,-4.43127 -1.62816,-2.72091 -2.60508,-5.98604 -0.89551,-3.34286 -1.87238,-6.91895 z"
   id="path9704"
   style="font-size:46.5302px;line-height:1.25;font-family:'Arial Rounded MT Bold';-inkscape-font-specification:'Arial Rounded MT Bold, Normal';fill:#000000;stroke-width:4.07313" /><path
   d="m 840.36651,519.18565 v -89.79091 q 0,-6.99675 3.33775,-10.49505 3.33769,-3.49836 8.62917,-3.49836 5.4543,0 8.79201,3.49836 3.41913,3.42055 3.41913,10.49505 v 89.79091 q 0,7.0745 -3.41913,10.57281 -3.33771,3.49839 -8.79201,3.49839 -5.21008,0 -8.62917,-3.49839 -3.33775,-3.57606 -3.33775,-10.57281 z"
   id="path9706"
   style="font-size:46.5302px;line-height:1.25;font-family:'Arial Rounded MT Bold';-inkscape-font-specification:'Arial Rounded MT Bold, Normal';fill:#000000;stroke-width:4.07313" /><text
   xml:space="preserve"
   style="font-style:normal;font-variant:normal;font-weight:normal;font-stretch:normal;font-size:88.9615px;line-height:1.25;font-family:'Arial Rounded MT Bold';-inkscape-font-specification:'Arial Rounded MT Bold, Normal';font-variant-ligatures:normal;font-variant-caps:normal;font-variant-numeric:normal;font-variant-east-asian:normal;fill:#999999;fill-opacity:1;stroke:none;stroke-width:2.22405"
   x="417.54065"
   y="499.66458"
   id="text12369"
   transform="scale(1.0762097,0.92918696)"><tspan
     sodipodi:role="line"
     id="tspan12367"
     style="font-style:normal;font-variant:normal;font-weight:normal;font-stretch:normal;font-size:88.9615px;font-family:'Arial Rounded MT Bold';-inkscape-font-specification:'Arial Rounded MT Bold, Normal';font-variant-ligatures:normal;font-variant-caps:normal;font-variant-numeric:normal;font-variant-east-asian:normal;fill:#999999;stroke-width:2.22405"
     x="417.54065"
     y="499.66458">รณ</tspan></text><text
   xml:space="preserve"
   style="font-style:normal;font-variant:normal;font-weight:normal;font-stretch:normal;font-size:74.8371px;line-height:1.25;font-family:'Arial Rounded MT Bold';-inkscape-font-specification:'Arial Rounded MT Bold, Normal';font-variant-ligatures:normal;font-variant-caps:normal;font-variant-numeric:normal;font-variant-east-asian:normal;fill:#999999;fill-opacity:1;stroke:none;stroke-width:1.87093"
   x="205.42609"
   y="560.60565"
   id="text15603"
   transform="scale(1.1218664,0.89137173)"><tspan
     sodipodi:role="line"
     id="tspan15601"
     style="font-style:normal;font-variant:normal;font-weight:normal;font-stretch:normal;font-size:74.8371px;font-family:'Arial Rounded MT Bold';-inkscape-font-specification:'Arial Rounded MT Bold, Normal';font-variant-ligatures:normal;font-variant-caps:normal;font-variant-numeric:normal;font-variant-east-asian:normal;fill:#999999;stroke-width:1.87093"
     x="205.42609"
     y="560.60565">A</tspan></text><path
   style="fill:none;stroke:#000000;stroke-width:22.2311;stroke-linecap:round;stroke-linejoin:bevel;stroke-miterlimit:4;stroke-dasharray:none;stroke-opacity:1"
   d="M 46.586985,846.72216 H 851.5627"
   id="path16550" /><path
   d="m 682.70941,518.88676 -5.48862,-15.02208 -48.60718,0.23918 -4.82339,14.61534 c -1.88343,5.70102 -3.49117,9.56213 -4.82338,11.58341 -1.3322,1.96945 -3.51417,2.95415 -6.54603,2.95415 -2.57245,0 -4.84636,-1.06249 -6.82166,-3.18741 -1.97525,-2.12491 -2.96289,-4.53485 -2.96289,-7.2299 0,-1.55485 0.22987,-3.16151 0.68902,-4.81994 0.45942,-1.65846 1.2173,-3.9648 2.27387,-6.91896 l 25.83956,-74.00951 c 0.73499,-2.12494 1.60783,-4.6645 2.61838,-7.61865 1.05661,-3.00597 2.15911,-5.49367 3.30754,-7.46311 1.19441,-1.9695 2.73323,-3.55018 4.61666,-4.74225 1.92932,-1.24383 4.29505,-1.86578 7.0972,-1.86578 2.8481,0 5.21388,0.62195 7.09731,1.86578 1.92936,1.19207 3.46824,2.74689 4.61671,4.66446 1.19432,1.91762 2.18197,3.99072 2.96289,6.21931 0.82686,2.17672 1.86044,5.105 3.10073,8.78471 l 31.71282,65.17023 c 2.06715,5.59733 6.22151,11.7338 6.31614,21.29589 0.0543,5.51381 0.32122,4.73899 -1.4107,9.34105 0,0 -1.9486,1.53437 -4.70001,1.71022 -2.81263,0.17972 -6.31214,0.50059 -7.46053,-0.17349 -1.14842,-0.62191 -1.66967,-1.7163 -2.4506,-2.80471 -0.78089,-1.14023 -1.29808,-0.8171 -2.21685,-3.09747 -0.87279,-2.33229 -3.29391,-7.72857 -3.93699,-9.49069 z m -48.72115,-32.11908 34.61555,0.47843 -19.6631,-47.5118 z"
   id="path9702"
   style="font-size:46.5302px;line-height:1.25;font-family:'Arial Rounded MT Bold';-inkscape-font-specification:'Arial Rounded MT Bold, Normal';fill:#000000;stroke-width:3.74735"
   sodipodi:nodetypes="cccccsssscccccscccccsssccccccccc" /><path
   style="fill:#000000;stroke-width:0.274583"
   d="m 149.10992,828.07043 c -5.83004,-0.57408 -11.84126,-1.88141 -14.0124,-3.04743 -7.88948,-12.62212 16.53163,-44.69647 19.23092,-57.70836 0,-0.1562 -1.41505,-0.55848 -3.1445,-0.89351 -9.22613,-1.28352 -19.03635,-7.61616 -18.64123,-18.96923 1.61179,-5.38309 5.80467,-10.83704 14.05529,-14.60429 5.14824,-2.35071 12.51094,-4.66064 17.84986,-5.60009 1.72678,-0.30396 1.99023,-0.4322 2.23853,-1.09071 0.15481,-0.41045 1.39618,-4.04259 2.75857,-8.07135 3.4504,-10.30441 9.05814,-26.28382 18.56381,-30.22692 2.40574,-0.93971 6.41121,-1.16717 8.87219,-0.50382 9.33107,2.51501 14.72528,11.99378 18.85425,33.13085 0.67253,3.4427 1.28836,6.37121 1.36856,6.50783 4.02353,0.88952 8.47328,1.38172 12.58493,2.48587 3.99295,1.09927 7.99158,2.77745 10.9443,4.59322 6.09883,3.75058 9.39888,9.10466 9.51625,14.2972 0.0548,2.41913 -0.30092,7.34348 -2.68935,9.8963 -2.888,3.08665 -5.45999,4.3987 -12.38319,6.31703 -2.46835,0.68399 -4.77902,1.40484 -5.13485,1.602 l -0.64701,0.35853 c 6.73592,25.32281 23.55514,45.36883 21.66713,56.15741 -1.19692,2.35448 -12.27368,4.76514 -24.78866,5.39489 -11.26993,0.5671 -21.56974,-0.76779 -24.70333,-3.20167 -2.60076,-2.01998 -4.48169,-6.7664 -6.99068,-17.64032 -2.99081,-12.96197 -4.05862,-16.8063 -4.5749,-16.47039 -0.50319,0.32748 -1.90094,5.8748 -3.33355,13.23048 -0.8149,4.18371 -1.78044,8.76927 -2.14566,10.19007 -1.41715,5.51274 -3.22545,9.00151 -5.43319,10.48219 -2.31302,1.55126 -6.95489,2.81396 -12.46664,3.39137 -3.34142,0.34965 -13.8319,0.34566 -17.41537,-0.01 z"
   id="path943-4"
   sodipodi:nodetypes="cccccsssccssccsssssccsssssssscc" /><path
   style="fill:#000000;stroke-width:0.256089"
   d="m 280.90235,826.13009 c -5.49217,-0.53005 -11.15504,-1.7372 -13.20036,-2.8138 -7.43228,-11.65449 15.57362,-41.27 18.11646,-53.28442 0,-0.14421 -1.33304,-0.51566 -2.96228,-0.82499 -8.69145,-1.18514 -17.93316,-7.03233 -17.56095,-17.51505 1.5184,-4.97041 5.46829,-10.00627 13.2408,-13.48475 4.84988,-2.1705 11.7859,-4.30333 16.81542,-5.17076 1.62672,-0.28088 1.8749,-0.39892 2.10882,-1.00711 0.14585,-0.37895 1.31526,-3.73269 2.59869,-7.45255 3.25046,-9.51453 8.53322,-24.26888 17.48804,-27.90973 2.26633,-0.86769 6.03967,-1.0777 8.35805,-0.46521 8.79032,2.32223 13.87191,11.07436 17.76163,30.59102 0.63354,3.17877 1.21368,5.88278 1.28923,6.00893 3.79038,0.82132 7.98225,1.2758 11.85562,2.29534 3.76156,1.01496 7.52846,2.56449 10.31008,4.24108 5.74541,3.46307 8.85421,8.40668 8.96479,13.20114 0.0516,2.23371 -0.28352,6.78057 -2.53352,9.13766 -2.72064,2.85005 -5.14357,4.0615 -11.66557,5.83278 -2.32532,0.63152 -4.50208,1.29713 -4.83728,1.47916 l -0.60951,0.33102 c 6.34556,23.38155 22.19008,41.89084 20.41148,51.85233 -1.12755,2.17401 -11.56239,4.39985 -23.35212,4.98133 -10.61683,0.52363 -20.31976,-0.70895 -23.27176,-2.95623 -2.45003,-1.86512 -4.22196,-6.24766 -6.58556,-16.28798 -2.81749,-11.9683 -3.82342,-15.51795 -4.30979,-15.20778 -0.47402,0.30219 -1.79077,5.42444 -3.14036,12.21623 -0.76768,3.86297 -1.67726,8.097 -2.02132,9.40892 -1.33502,5.09011 -3.03853,8.31145 -5.11832,9.67861 -2.17898,1.43235 -6.55186,2.59822 -11.74419,3.13137 -3.14779,0.32305 -13.03034,0.31905 -16.40614,-0.01 z"
   id="path943-4-5"
   sodipodi:nodetypes="cccccsssccssccsssssccsssssssscc" /><path
   style="fill:#000000;stroke-width:0.217707"
   d="m 400.31257,823.88198 c -4.59123,-0.45826 -9.32515,-1.50189 -11.03496,-2.43263 -6.21307,-10.0758 13.01889,-35.67951 15.14461,-46.06641 0,-0.1247 -1.11436,-0.44578 -2.47633,-0.71324 -7.2657,-1.02458 -14.9914,-6.07972 -14.68023,-15.14241 1.26931,-4.29708 4.57126,-8.65079 11.06875,-11.65806 4.0543,-1.87648 9.85252,-3.72038 14.05699,-4.47031 1.35986,-0.24272 1.56733,-0.34522 1.76287,-0.87065 0.12195,-0.32748 1.09952,-3.22711 2.17242,-6.44306 2.71722,-8.22564 7.13342,-20.98136 14.61924,-24.12898 1.89461,-0.75014 5.04889,-0.93172 6.98699,-0.40246 7.34833,2.00765 11.59634,9.57419 14.84797,26.44707 0.52962,2.74816 1.0146,5.08591 1.07773,5.19494 3.16863,0.71011 6.67286,1.10296 9.91081,1.98439 3.14449,0.8775 6.29351,2.21715 8.6188,3.66663 4.80293,2.99394 7.40176,7.26783 7.49419,11.41288 0.0446,1.93105 -0.23656,5.86201 -2.11794,7.89984 -2.27431,2.46391 -4.29982,3.51131 -9.7519,5.0426 -1.94384,0.54602 -3.76351,1.12142 -4.04375,1.27881 l -0.50952,0.28621 c 5.30462,20.21427 18.54993,36.21622 17.06313,44.82831 -0.94259,1.8795 -9.66569,3.80382 -19.52144,4.30654 -8.87519,0.4527 -16.98646,-0.6129 -19.45417,-2.55577 -2.04814,-1.61246 -3.52936,-5.40137 -5.50528,-14.08162 -2.35527,-10.34702 -3.19621,-13.41578 -3.60273,-13.14763 -0.3965,0.26137 -1.49705,4.68961 -2.62525,10.5614 -0.64174,3.33967 -1.40214,7.00015 -1.68976,8.1343 -1.11601,4.40061 -2.54008,7.18557 -4.27868,8.36751 -1.82154,1.23835 -5.47709,2.2463 -9.81766,2.70721 -2.63142,0.2791 -10.89281,0.276 -13.71485,-0.01 z"
   id="path943-4-0"
   sodipodi:nodetypes="cccccsssccssccsssssccsssssssscc" /><path
   style="fill:#000000;stroke-width:0.169683"
   d="m 506.10561,822.50563 c -3.63397,-0.35189 -7.38092,-1.15271 -8.73419,-1.86704 -4.91769,-7.73313 10.30448,-27.3838 11.98697,-35.35571 0,-0.0958 -0.88197,-0.34213 -1.95996,-0.5474 -5.75085,-0.78639 -11.8658,-4.66613 -11.61947,-11.62171 1.00466,-3.29799 3.61815,-6.63944 8.76091,-8.9475 3.20903,-1.44021 7.79831,-2.85537 11.12616,-3.43095 1.07634,-0.18638 1.24061,-0.26491 1.39538,-0.66822 0.0962,-0.25117 0.87025,-2.47679 1.71943,-4.94499 2.15069,-6.31312 5.64609,-16.10312 11.57117,-18.51888 1.49959,-0.5757 3.99626,-0.71508 5.53022,-0.30883 5.81625,1.54087 9.17854,7.34813 11.75219,20.29804 0.41924,2.10913 0.80308,3.90335 0.85307,3.98704 2.50798,0.545 5.28158,0.84652 7.8444,1.523 2.48888,0.67351 4.98137,1.70165 6.82181,2.81411 3.80157,2.29786 5.85856,5.57806 5.93171,8.75932 0.0356,1.48213 -0.18755,4.49911 -1.67635,6.06307 -1.80018,1.89109 -3.40333,2.69497 -7.71865,3.87025 -1.53857,0.41889 -2.97889,0.86068 -3.20067,0.98142 l -0.40318,0.21965 c 4.19864,15.51432 14.68238,27.79568 13.50557,34.40545 -0.7461,1.44251 -7.65043,2.9194 -15.45132,3.30523 -7.02469,0.34744 -13.44481,-0.47041 -15.39806,-1.96155 -1.62106,-1.23755 -2.79345,-4.1455 -4.35737,-10.80753 -1.86422,-7.9413 -2.52981,-10.29657 -2.85161,-10.09077 -0.31409,0.20059 -1.18492,3.59927 -2.0779,8.10584 -0.50796,2.56317 -1.10979,5.37256 -1.33745,6.24301 -0.88331,3.37748 -2.01049,5.51492 -3.38658,6.42205 -1.44175,0.95039 -4.33514,1.72397 -7.77072,2.07777 -2.08275,0.21388 -8.62165,0.21167 -10.85534,-0.01 z"
   id="path943-4-0-3"
   sodipodi:nodetypes="cccccsssccssccsssssccsssssssscc"
   inkscape:transform-center-x="18.0527"
   inkscape:transform-center-y="0.43877558" /><path
   style="fill:#000000;stroke-width:0.143782"
   d="m 597.63837,821.10571 c -3.09904,-0.29596 -6.29441,-0.97049 -7.4485,-1.57193 -4.19377,-6.51085 8.78761,-23.05558 10.22247,-29.76749 0,-0.0803 -0.75217,-0.28843 -1.67142,-0.46087 -4.90437,-0.66211 -10.11913,-3.9286 -9.90908,-9.78485 0.8568,-2.77674 3.08558,-5.59 7.4713,-7.53326 2.73662,-1.21256 6.65032,-2.40409 9.48834,-2.88866 0.91788,-0.15708 1.05795,-0.2232 1.18996,-0.56261 0.0819,-0.21167 0.74212,-2.08532 1.46628,-4.16343 1.83413,-5.31525 4.81502,-13.55788 9.86787,-15.59179 1.27884,-0.48475 3.40797,-0.60207 4.71616,-0.26049 4.96006,1.29732 7.82744,6.18675 10.02218,17.08977 0.3573,1.77581 0.68488,3.28646 0.72752,3.35688 2.1388,0.45888 4.50409,0.71274 6.6897,1.28228 2.12248,0.56706 4.24805,1.43271 5.81758,2.36935 3.24195,1.93461 4.99615,4.6964 5.05856,7.37485 0.0267,1.24784 -0.15993,3.78794 -1.42963,5.10474 -1.53514,1.59217 -2.90231,2.26902 -6.58243,3.25851 -1.3121,0.35277 -2.54037,0.72462 -2.72944,0.82628 l -0.34394,0.18503 c 3.58055,13.06218 12.52105,23.40241 11.51744,28.96743 -0.63621,1.21451 -6.52424,2.45796 -13.17677,2.78283 -5.99066,0.29287 -11.46569,-0.39581 -13.1314,-1.65151 -1.38246,-1.04195 -2.38226,-3.49027 -3.71597,-9.09931 -1.5898,-6.68613 -2.15743,-8.66916 -2.43186,-8.49588 -0.26775,0.16905 -1.01045,3.03038 -1.77197,6.82466 -0.43303,2.15805 -0.94643,4.52339 -1.14058,5.25622 -0.75331,2.84367 -1.71454,4.64329 -2.8881,5.40701 -1.2295,0.80025 -3.697,1.45157 -6.62679,1.7494 -1.77625,0.18016 -7.35253,0.17838 -9.25738,-0.01 z"
   id="path943-4-0-3-1"
   sodipodi:nodetypes="cccccsssccssccsssssccsssssssscc"
   inkscape:transform-center-x="15.395277"
   inkscape:transform-center-y="0.36934685" /><path
   style="fill:#000000;stroke-width:0.111301"
   d="m 675.3938,820.56866 c -2.45153,-0.22454 -4.97917,-0.73518 -5.89211,-1.19077 -3.31751,-4.93208 6.9514,-17.465 8.08642,-22.54936 0,-0.0613 -0.59496,-0.21832 -1.32218,-0.34922 -3.87953,-0.50156 -8.00466,-2.97599 -7.83857,-7.41217 0.67778,-2.10342 2.44089,-4.23452 5.91019,-5.70658 2.16476,-0.91854 5.26069,-1.82115 7.50569,-2.18817 0.7261,-0.11891 0.83689,-0.16906 0.94132,-0.42643 0.0646,-0.1602 0.58705,-1.57962 1.15993,-3.15384 1.45089,-4.0264 3.80891,-10.2703 7.80592,-11.81103 1.01162,-0.36699 2.69586,-0.45608 3.73072,-0.19704 3.92363,0.98276 6.19185,4.68661 7.92799,12.94579 0.2829,1.3452 0.54178,2.48956 0.57547,2.54288 1.69191,0.34746 3.56299,0.5399 5.29187,0.97135 1.67899,0.42955 3.36043,1.08529 4.60196,1.79484 2.56453,1.46553 3.95224,3.55759 4.00161,5.58659 0.0223,0.94524 -0.12609,2.86939 -1.13092,3.86692 -1.21441,1.20608 -2.29588,1.71882 -5.20701,2.46834 -1.03791,0.26758 -2.00955,0.54891 -2.15916,0.62594 l -0.2722,0.14021 c 2.8324,9.89481 9.90471,17.72774 9.11081,21.94327 -0.50329,0.92004 -5.16099,1.86201 -10.42346,2.10806 -4.73887,0.22187 -9.06982,-0.29996 -10.3875,-1.25102 -1.09355,-0.78933 -1.88451,-2.64395 -2.93951,-6.89288 -1.25762,-5.06483 -1.7066,-6.56702 -1.9237,-6.43577 -0.21162,0.1278 -0.79933,2.29555 -1.4017,5.16978 -0.34305,1.63474 -0.74867,3.42655 -0.90224,3.98172 -0.59591,2.15409 -1.35631,3.51734 -2.28466,4.09585 -0.9726,0.60619 -2.92449,1.09958 -5.24211,1.32522 -1.40505,0.13667 -5.8162,0.1349 -7.323,-0.01 z"
   id="path943-4-0-3-1-1"
   sodipodi:nodetypes="cccccsssccssccsssssccsssssssscc"
   inkscape:transform-center-x="12.178403"
   inkscape:transform-center-y="0.27973355" /><path
   style="fill:#000000;stroke-width:0.0840869"
   d="m 742.42925,820.87959 c -1.86027,-0.16862 -3.77831,-0.553 -4.47104,-0.89569 -2.51742,-3.7098 5.27487,-13.1368 6.13613,-16.96112 0,-0.0457 -0.45149,-0.16463 -1.00334,-0.26226 -2.94381,-0.37717 -6.07409,-2.23844 -5.94801,-5.57527 0.51433,-1.58215 1.8522,-3.18512 4.48476,-4.29233 1.6427,-0.69095 3.99191,-1.36987 5.6955,-1.64597 0.55095,-0.0892 0.63501,-0.12734 0.71428,-0.32037 0.049,-0.12069 0.44551,-1.18816 0.88014,-2.37224 1.10095,-3.02856 2.89028,-7.72508 5.92334,-8.88405 0.76761,-0.27601 2.04563,-0.34302 2.83089,-0.14821 2.97733,0.73922 4.69851,3.52515 6.01596,9.73755 0.21474,1.01181 0.41121,1.87258 0.4366,1.91274 1.28387,0.26136 2.70365,0.40601 4.01559,0.73061 1.27406,0.32304 2.54996,0.8163 3.49206,1.35003 1.94603,1.10229 2.99903,2.67593 3.0365,4.20208 0.0179,0.711 -0.0962,2.15835 -0.85819,2.90862 -0.92147,0.90718 -1.74215,1.29288 -3.95115,1.85666 -0.78762,0.20101 -1.52489,0.41267 -1.6384,0.47079 l -0.20673,0.1052 c 2.14931,7.4427 7.51594,13.33444 6.91349,16.50527 -0.3818,0.69206 -3.91628,1.40053 -7.9095,1.58571 -3.59597,0.16685 -6.88239,-0.22542 -7.88228,-0.9411 -0.82981,-0.59367 -1.42996,-1.98865 -2.23053,-5.18464 -0.95433,-3.80967 -1.29505,-4.93956 -1.45976,-4.84084 -0.16037,0.0962 -0.60655,1.72663 -1.06369,3.88858 -0.26017,1.22969 -0.56811,2.57742 -0.68461,2.99497 -0.45219,1.62027 -1.02917,2.64566 -1.73361,3.08084 -0.73802,0.45594 -2.21916,0.82709 -3.97784,0.99677 -1.0662,0.10245 -4.41343,0.10169 -5.55683,-0.003 z"
   id="path943-4-0-3-1-1-6"
   sodipodi:nodetypes="cccccsssccssccsssssccsssssssscc"
   inkscape:transform-center-x="9.2412411"
   inkscape:transform-center-y="0.21066821" /></svg>
